<?xml version="1.0" encoding="UTF-8"?>
<svg xmlns="http://www.w3.org/2000/svg" xmlns:xlink="http://www.w3.org/1999/xlink" width="2000" height="2000" viewBox="0 0 2000 2000">
<defs>
<clipPath id="clip-0">

</clipPath>
<clipPath id="clip-1">
<path clip-rule="nonzero" d="M 1105.828125 375.488281 C 1102.511719 376.660156 1171.699219 390.78125 1171.699219 390.78125 C 1171.699219 390.78125 1268.140625 350.789062 1316.359375 342.558594 C 1316.359375 342.558594 1269.320312 308.449219 1221.101562 311.980469 C 1221.101562 311.980469 1276.371094 329.621094 1289.308594 334.328125 C 1289.308594 334.328125 1171.699219 349.621094 1144.648438 374.308594 C 1144.648438 374.308594 1125.828125 368.429688 1105.828125 375.488281 Z M 1105.828125 375.488281 "/>
</clipPath>
<clipPath id="clip-2">
<path clip-rule="nonzero" d="M 1105.828125 375.488281 C 1102.511719 376.660156 1171.699219 390.78125 1171.699219 390.78125 C 1171.699219 390.78125 1268.140625 350.789062 1316.359375 342.558594 C 1316.359375 342.558594 1269.320312 308.449219 1221.101562 311.980469 C 1221.101562 311.980469 1276.371094 329.621094 1289.308594 334.328125 C 1289.308594 334.328125 1171.699219 349.621094 1144.648438 374.308594 C 1144.648438 374.308594 1125.828125 368.429688 1105.828125 375.488281 "/>
</clipPath>
<linearGradient id="linear-pattern-0" gradientUnits="userSpaceOnUse" x1="-0.562447" y1="0" x2="2.226183" y2="0" gradientTransform="matrix(-17.4372, -50.1319, 50.1319, -17.4372, 1222.44, 391.84)">
<stop offset="0" stop-color="rgb(68.699646%, 81.684875%, 77.130127%)" stop-opacity="1"/>
<stop offset="0.125" stop-color="rgb(68.699646%, 81.684875%, 77.130127%)" stop-opacity="1"/>
<stop offset="0.1875" stop-color="rgb(68.699646%, 81.684875%, 77.130127%)" stop-opacity="1"/>
<stop offset="0.203125" stop-color="rgb(68.605042%, 81.576538%, 77.018738%)" stop-opacity="1"/>
<stop offset="0.207031" stop-color="rgb(67.91687%, 80.784607%, 76.313782%)" stop-opacity="1"/>
<stop offset="0.210937" stop-color="rgb(67.327881%, 80.105591%, 75.726318%)" stop-opacity="1"/>
<stop offset="0.214844" stop-color="rgb(66.770935%, 79.470825%, 75.297546%)" stop-opacity="1"/>
<stop offset="0.21875" stop-color="rgb(66.213989%, 78.839111%, 74.868774%)" stop-opacity="1"/>
<stop offset="0.222656" stop-color="rgb(65.594482%, 78.038025%, 74.328613%)" stop-opacity="1"/>
<stop offset="0.226563" stop-color="rgb(64.979553%, 77.243042%, 73.791504%)" stop-opacity="1"/>
<stop offset="0.230469" stop-color="rgb(64.286804%, 76.443481%, 73.202515%)" stop-opacity="1"/>
<stop offset="0.234375" stop-color="rgb(63.597107%, 75.650024%, 72.616577%)" stop-opacity="1"/>
<stop offset="0.238281" stop-color="rgb(62.974548%, 74.905396%, 72.080994%)" stop-opacity="1"/>
<stop offset="0.242187" stop-color="rgb(62.356567%, 74.16687%, 71.549988%)" stop-opacity="1"/>
<stop offset="0.246094" stop-color="rgb(61.856079%, 73.521423%, 70.947266%)" stop-opacity="1"/>
<stop offset="0.25" stop-color="rgb(61.358643%, 72.880554%, 70.347595%)" stop-opacity="1"/>
<stop offset="0.253906" stop-color="rgb(60.870361%, 72.253418%, 69.891357%)" stop-opacity="1"/>
<stop offset="0.257812" stop-color="rgb(60.385132%, 71.629333%, 69.436646%)" stop-opacity="1"/>
<stop offset="0.261719" stop-color="rgb(59.754944%, 70.922852%, 68.925476%)" stop-opacity="1"/>
<stop offset="0.265625" stop-color="rgb(59.127808%, 70.220947%, 68.418884%)" stop-opacity="1"/>
<stop offset="0.269531" stop-color="rgb(58.564758%, 69.598389%, 67.900085%)" stop-opacity="1"/>
<stop offset="0.273438" stop-color="rgb(58.006287%, 68.978882%, 67.38739%)" stop-opacity="1"/>
<stop offset="0.277344" stop-color="rgb(57.437134%, 68.203735%, 66.967773%)" stop-opacity="1"/>
<stop offset="0.28125" stop-color="rgb(56.869507%, 67.431641%, 66.549683%)" stop-opacity="1"/>
<stop offset="0.285156" stop-color="rgb(56.161499%, 66.636658%, 65.945435%)" stop-opacity="1"/>
<stop offset="0.289062" stop-color="rgb(55.459595%, 65.844727%, 65.342712%)" stop-opacity="1"/>
<stop offset="0.292969" stop-color="rgb(54.989624%, 65.209961%, 64.756775%)" stop-opacity="1"/>
<stop offset="0.296875" stop-color="rgb(54.519653%, 64.578247%, 64.173889%)" stop-opacity="1"/>
<stop offset="0.300781" stop-color="rgb(53.816223%, 63.903809%, 63.682556%)" stop-opacity="1"/>
<stop offset="0.304688" stop-color="rgb(53.115845%, 63.232422%, 63.192749%)" stop-opacity="1"/>
<stop offset="0.308594" stop-color="rgb(52.644348%, 62.574768%, 62.786865%)" stop-opacity="1"/>
<stop offset="0.3125" stop-color="rgb(52.174377%, 61.920166%, 62.382507%)" stop-opacity="1"/>
<stop offset="0.316406" stop-color="rgb(51.547241%, 61.230469%, 61.862183%)" stop-opacity="1"/>
<stop offset="0.320312" stop-color="rgb(50.923157%, 60.545349%, 61.343384%)" stop-opacity="1"/>
<stop offset="0.324219" stop-color="rgb(50.505066%, 59.936523%, 60.856628%)" stop-opacity="1"/>
<stop offset="0.328125" stop-color="rgb(50.088501%, 59.332275%, 60.374451%)" stop-opacity="1"/>
<stop offset="0.332031" stop-color="rgb(49.453735%, 58.638%, 59.838867%)" stop-opacity="1"/>
<stop offset="0.335938" stop-color="rgb(48.822021%, 57.946777%, 59.306335%)" stop-opacity="1"/>
<stop offset="0.339844" stop-color="rgb(48.181152%, 57.246399%, 58.879089%)" stop-opacity="1"/>
<stop offset="0.34375" stop-color="rgb(47.543335%, 56.550598%, 58.451843%)" stop-opacity="1"/>
<stop offset="0.347656" stop-color="rgb(46.878052%, 55.81665%, 57.748413%)" stop-opacity="1"/>
<stop offset="0.351562" stop-color="rgb(46.217346%, 55.088806%, 57.051086%)" stop-opacity="1"/>
<stop offset="0.355469" stop-color="rgb(45.568848%, 54.281616%, 56.439209%)" stop-opacity="1"/>
<stop offset="0.359375" stop-color="rgb(44.926453%, 53.483582%, 55.833435%)" stop-opacity="1"/>
<stop offset="0.363281" stop-color="rgb(44.519043%, 52.989197%, 55.513%)" stop-opacity="1"/>
<stop offset="0.367188" stop-color="rgb(44.116211%, 52.49939%, 55.194092%)" stop-opacity="1"/>
<stop offset="0.371094" stop-color="rgb(43.484497%, 51.748657%, 54.608154%)" stop-opacity="1"/>
<stop offset="0.375" stop-color="rgb(42.858887%, 51.004028%, 54.026794%)" stop-opacity="1"/>
<stop offset="0.378906" stop-color="rgb(42.234802%, 50.292969%, 53.55072%)" stop-opacity="1"/>
<stop offset="0.382812" stop-color="rgb(41.616821%, 49.589539%, 53.077698%)" stop-opacity="1"/>
<stop offset="0.386719" stop-color="rgb(41.05072%, 48.927307%, 52.470398%)" stop-opacity="1"/>
<stop offset="0.390625" stop-color="rgb(40.487671%, 48.271179%, 51.869202%)" stop-opacity="1"/>
<stop offset="0.394531" stop-color="rgb(40.06958%, 47.717285%, 51.495361%)" stop-opacity="1"/>
<stop offset="0.398438" stop-color="rgb(39.656067%, 47.167969%, 51.123047%)" stop-opacity="1"/>
<stop offset="0.402344" stop-color="rgb(39.057922%, 46.5271%, 50.588989%)" stop-opacity="1"/>
<stop offset="0.40625" stop-color="rgb(38.465881%, 45.892334%, 50.057983%)" stop-opacity="1"/>
<stop offset="0.410156" stop-color="rgb(37.983704%, 45.280457%, 49.525452%)" stop-opacity="1"/>
<stop offset="0.414062" stop-color="rgb(37.503052%, 44.671631%, 48.995972%)" stop-opacity="1"/>
<stop offset="0.417969" stop-color="rgb(36.935425%, 43.983459%, 48.516846%)" stop-opacity="1"/>
<stop offset="0.421875" stop-color="rgb(36.369324%, 43.299866%, 48.039246%)" stop-opacity="1"/>
<stop offset="0.425781" stop-color="rgb(35.71167%, 42.655945%, 47.557068%)" stop-opacity="1"/>
<stop offset="0.429688" stop-color="rgb(35.06012%, 42.018127%, 47.076416%)" stop-opacity="1"/>
<stop offset="0.433594" stop-color="rgb(34.634399%, 41.523743%, 46.705627%)" stop-opacity="1"/>
<stop offset="0.4375" stop-color="rgb(34.213257%, 41.03241%, 46.334839%)" stop-opacity="1"/>
<stop offset="0.441406" stop-color="rgb(33.644104%, 40.368652%, 45.857239%)" stop-opacity="1"/>
<stop offset="0.445312" stop-color="rgb(33.081055%, 39.710999%, 45.38269%)" stop-opacity="1"/>
<stop offset="0.449219" stop-color="rgb(32.650757%, 39.03656%, 44.831848%)" stop-opacity="1"/>
<stop offset="0.453125" stop-color="rgb(32.225037%, 38.369751%, 44.285583%)" stop-opacity="1"/>
<stop offset="0.457031" stop-color="rgb(31.65741%, 37.815857%, 43.80188%)" stop-opacity="1"/>
<stop offset="0.460938" stop-color="rgb(31.097412%, 37.266541%, 43.321228%)" stop-opacity="1"/>
<stop offset="0.464844" stop-color="rgb(30.531311%, 36.633301%, 42.89093%)" stop-opacity="1"/>
<stop offset="0.46875" stop-color="rgb(29.969788%, 36.006165%, 42.459106%)" stop-opacity="1"/>
<stop offset="0.472656" stop-color="rgb(29.428101%, 35.255432%, 41.88385%)" stop-opacity="1"/>
<stop offset="0.476562" stop-color="rgb(28.892517%, 34.515381%, 41.311646%)" stop-opacity="1"/>
<stop offset="0.480469" stop-color="rgb(28.268433%, 33.880615%, 40.756226%)" stop-opacity="1"/>
<stop offset="0.484375" stop-color="rgb(27.653503%, 33.253479%, 40.205383%)" stop-opacity="1"/>
<stop offset="0.488281" stop-color="rgb(27.177429%, 32.725525%, 39.730835%)" stop-opacity="1"/>
<stop offset="0.492188" stop-color="rgb(26.705933%, 32.203674%, 39.260864%)" stop-opacity="1"/>
<stop offset="0.496094" stop-color="rgb(26.176453%, 31.562805%, 38.751221%)" stop-opacity="1"/>
<stop offset="0.5" stop-color="rgb(25.654602%, 30.931091%, 38.246155%)" stop-opacity="1"/>
<stop offset="0.503906" stop-color="rgb(25.093079%, 30.360413%, 37.770081%)" stop-opacity="1"/>
<stop offset="0.507812" stop-color="rgb(24.536133%, 29.795837%, 37.298584%)" stop-opacity="1"/>
<stop offset="0.511719" stop-color="rgb(23.921204%, 29.077148%, 36.69281%)" stop-opacity="1"/>
<stop offset="0.515625" stop-color="rgb(23.31543%, 28.369141%, 36.09314%)" stop-opacity="1"/>
<stop offset="0.519531" stop-color="rgb(22.737122%, 27.807617%, 35.621643%)" stop-opacity="1"/>
<stop offset="0.523438" stop-color="rgb(22.164917%, 27.256775%, 35.154724%)" stop-opacity="1"/>
<stop offset="0.527344" stop-color="rgb(21.551514%, 26.649475%, 34.606934%)" stop-opacity="1"/>
<stop offset="0.53125" stop-color="rgb(20.947266%, 26.052856%, 34.063721%)" stop-opacity="1"/>
<stop offset="0.535156" stop-color="rgb(20.35675%, 25.37384%, 33.535767%)" stop-opacity="1"/>
<stop offset="0.539062" stop-color="rgb(19.773865%, 24.707031%, 33.009338%)" stop-opacity="1"/>
<stop offset="0.542969" stop-color="rgb(19.148254%, 24.111938%, 32.484436%)" stop-opacity="1"/>
<stop offset="0.546875" stop-color="rgb(18.533325%, 23.526001%, 31.96106%)" stop-opacity="1"/>
<stop offset="0.550781" stop-color="rgb(17.918396%, 22.924805%, 31.385803%)" stop-opacity="1"/>
<stop offset="0.554688" stop-color="rgb(17.314148%, 22.335815%, 30.815125%)" stop-opacity="1"/>
<stop offset="0.558594" stop-color="rgb(16.972351%, 21.931458%, 30.526733%)" stop-opacity="1"/>
<stop offset="0.5625" stop-color="rgb(16.633606%, 21.531677%, 30.239868%)" stop-opacity="1"/>
<stop offset="0.625" stop-color="rgb(16.633606%, 21.531677%, 30.239868%)" stop-opacity="1"/>
<stop offset="0.75" stop-color="rgb(16.633606%, 21.531677%, 30.239868%)" stop-opacity="1"/>
<stop offset="1" stop-color="rgb(16.633606%, 21.531677%, 30.239868%)" stop-opacity="1"/>
</linearGradient>
</defs>

<path fill-rule="nonzero" fill="rgb(93.658447%, 19.161987%, 16.836548%)" fill-opacity="1" d="M 1757.738281 1019.371094 C 1757.738281 1453.628906 1417.398438 1805.679688 997.585938 1805.679688 C 577.765625 1805.679688 237.433594 1453.628906 237.433594 1019.371094 C 237.433594 585.101562 577.765625 233.058594 997.585938 233.058594 C 1417.398438 233.058594 1757.738281 585.101562 1757.738281 1019.371094 "/>
<path fill="none" stroke-width="70" stroke-linecap="butt" stroke-linejoin="miter" stroke="rgb(1.615906%, 2.072144%, 2.070618%)" stroke-opacity="1" stroke-miterlimit="10" d="M 17577.382812 9806.289062 C 17577.382812 5463.710938 14173.984375 1943.203125 9975.859375 1943.203125 C 5777.65625 1943.203125 2374.335938 5463.710938 2374.335938 9806.289062 C 2374.335938 14148.984375 5777.65625 17669.414062 9975.859375 17669.414062 C 14173.984375 17669.414062 17577.382812 14148.984375 17577.382812 9806.289062 Z M 17577.382812 9806.289062 " transform="matrix(0.1, 0, 0, -0.1, 0, 2000)"/>
<path fill-rule="nonzero" fill="rgb(31.523132%, 39.66217%, 47.615051%)" fill-opacity="1" d="M 1459.140625 1634.210938 C 1327.851562 1753.28125 1176.699219 1776.058594 1176.699219 1776.058594 C 1176.699219 1776.058594 1226.738281 1639.28125 1268.460938 1539.589844 C 1275.558594 1522.660156 1282.429688 1506.78125 1288.738281 1492.839844 L 1288.898438 1492.898438 C 1303.539062 1497.929688 1316.988281 1503.53125 1329.371094 1509.511719 C 1431.691406 1558.929688 1459.140625 1634.210938 1459.140625 1634.210938 "/>
<path fill-rule="nonzero" fill="rgb(31.523132%, 39.66217%, 47.615051%)" fill-opacity="1" d="M 877.621094 1788 C 713.351562 1773.75 544.46875 1646.460938 544.46875 1646.460938 C 558.46875 1587.5 632.996094 1542.699219 681.734375 1519.179688 C 706.597656 1507.160156 724.742188 1500.691406 724.742188 1500.691406 L 725.101562 1500.5 C 736.550781 1520.460938 750.417969 1544.78125 765.082031 1570.871094 C 811.246094 1652.890625 865.398438 1752.300781 877.621094 1788 "/>
<path fill-rule="nonzero" fill="rgb(51.138306%, 8.114624%, 15.789795%)" fill-opacity="1" d="M 905.148438 1374.359375 C 901.726562 1384.800781 897.050781 1394.761719 890.617188 1402.25 L 853.117188 1430.550781 L 820.953125 1370.011719 C 826.175781 1368.761719 831.398438 1367.980469 836.523438 1367.828125 C 836.523438 1367.828125 900.117188 1373.789062 905.148438 1374.359375 "/>
<path fill-rule="nonzero" fill="rgb(8.911133%, 3.916931%, 5.445862%)" fill-opacity="1" d="M 1207.351562 1366.019531 L 1183.378906 1415.109375 L 1149.21875 1400.359375 L 1138.96875 1419.828125 L 1109.378906 1411.371094 C 1102.910156 1403.78125 1098.101562 1390.328125 1094.601562 1375.71875 L 1095.578125 1375.480469 C 1095.578125 1375.480469 1182.199219 1362.328125 1197.660156 1362.328125 C 1199.691406 1362.328125 1203.03125 1363.671875 1207.351562 1366.019531 "/>
<path fill-rule="nonzero" fill="rgb(92.481995%, 97.445679%, 96.853638%)" fill-opacity="1" d="M 1014.300781 1656.480469 L 985.902344 1710.429688 L 860.667969 1446.46875 C 877.183594 1447 894.175781 1446.539062 911.28125 1444.71875 L 1014.300781 1656.480469 "/>
<path fill-rule="nonzero" fill="rgb(92.481995%, 97.445679%, 96.853638%)" fill-opacity="1" d="M 1183.378906 1415.109375 L 1104.738281 1599.078125 L 1019.089844 1799.488281 C 989.25 1799.5 944.410156 1794.871094 944.410156 1794.871094 L 985.902344 1710.429688 L 1014.300781 1656.480469 L 1121.070312 1453.789062 L 1138.96875 1419.828125 L 1149.21875 1400.359375 L 1183.378906 1415.109375 "/>
<path fill-rule="nonzero" fill="rgb(93.081665%, 22.071838%, 23.855591%)" fill-opacity="1" d="M 1313.039062 1445.441406 C 1306.851562 1454.730469 1298.410156 1471.539062 1288.738281 1492.839844 C 1245.191406 1588.839844 1176.699219 1776.058594 1176.699219 1776.058594 C 1119.609375 1793.960938 1019.339844 1799.488281 1019.339844 1799.488281 C 1019.261719 1799.488281 1019.160156 1799.488281 1019.089844 1799.488281 L 1183.378906 1415.109375 L 1207.351562 1366.019531 C 1235.980469 1381.609375 1306.980469 1441.410156 1313.039062 1445.441406 "/>
<path fill-rule="nonzero" fill="rgb(93.081665%, 22.071838%, 23.855591%)" fill-opacity="1" d="M 985.902344 1710.429688 L 944.410156 1794.871094 C 939.980469 1794.738281 935.0625 1794.429688 929.953125 1794.019531 C 905.90625 1792.128906 877.621094 1788 877.621094 1788 C 861.519531 1740.949219 772.554688 1583.21875 725.101562 1500.5 C 709.511719 1473.308594 698.386719 1454.199219 695.832031 1449.808594 C 698.289062 1447.539062 713.730469 1433.320312 727.410156 1422.78125 C 758.402344 1432.539062 807.046875 1444.71875 860.667969 1446.46875 L 981.53125 1701.191406 L 985.902344 1710.429688 "/>
<path fill-rule="nonzero" fill="rgb(99.206543%, 90.214539%, 75.549316%)" fill-opacity="1" d="M 1138.96875 1419.828125 L 1121.070312 1453.789062 L 1014.300781 1656.480469 L 911.28125 1444.71875 C 975.742188 1437.839844 1041.621094 1411.480469 1088.960938 1345.390625 C 1090.320312 1355.019531 1092.160156 1365.660156 1094.601562 1375.71875 C 1098.101562 1390.328125 1102.910156 1403.78125 1109.378906 1411.371094 L 1111.121094 1411.859375 L 1138.96875 1419.828125 "/>
<path fill-rule="nonzero" fill="rgb(97.744751%, 90.975952%, 78.81012%)" fill-opacity="1" d="M 1391.140625 1101.320312 C 1329.421875 1160.578125 1283.539062 1164.980469 1283.539062 1164.980469 L 1304.808594 1091.519531 L 1313.628906 1061.039062 C 1333.398438 1055.378906 1355.171875 1000.359375 1366.601562 967.28125 C 1371.640625 952.75 1374.679688 942.460938 1374.679688 942.460938 C 1375.339844 942.671875 1375.988281 942.890625 1376.628906 943.101562 C 1382.058594 944.941406 1387.070312 947.039062 1391.710938 949.371094 C 1392.789062 949.898438 1393.851562 950.441406 1394.871094 951.011719 C 1402.269531 955.019531 1408.609375 959.679688 1413.921875 964.820312 C 1448.980469 998.789062 1439.539062 1054.871094 1391.140625 1101.320312 "/>
<path fill-rule="nonzero" fill="rgb(16.677856%, 21.437073%, 30.09491%)" fill-opacity="1" d="M 1474.109375 663.839844 C 1483.628906 676.78125 1529.601562 744 1521.859375 825.441406 L 1521.859375 825.460938 C 1521.789062 826.480469 1521.679688 827.480469 1521.558594 828.5 C 1521.558594 828.5 1478.558594 797.769531 1466.28125 778.320312 C 1469.191406 760.390625 1470.171875 743.398438 1469.609375 727.390625 L 1469.609375 727.371094 C 1468.808594 703.378906 1464.570312 681.601562 1458.289062 662.078125 C 1453.558594 647.359375 1447.679688 633.941406 1441.230469 621.828125 C 1437.878906 615.511719 1434.378906 609.550781 1430.800781 603.96875 C 1425.410156 595.511719 1419.851562 587.910156 1414.421875 581.109375 C 1409.171875 574.550781 1404.050781 568.78125 1399.300781 563.800781 C 1385.089844 548.890625 1374.421875 541.25 1374.421875 541.25 C 1372.699219 539.660156 1370.96875 538.109375 1369.25 536.578125 C 1346.53125 516.179688 1323.289062 498.640625 1299.808594 483.640625 C 1299.699219 483.558594 1299.609375 483.5 1299.488281 483.429688 C 1294.519531 480.25 1289.519531 477.179688 1284.53125 474.210938 C 1215.308594 433.25 1144.570312 413.289062 1079.238281 405.488281 C 1079.21875 405.488281 1079.21875 405.488281 1079.21875 405.488281 C 923.917969 386.898438 799.382812 437.03125 799.382812 437.03125 C 741.144531 397 703.511719 446.738281 703.511719 446.738281 C 679.917969 444 660.808594 446.378906 645.3125 452.210938 C 635.265625 455.96875 626.753906 461.179688 619.542969 467.398438 C 605.695312 479.28125 596.632812 494.800781 590.746094 510.621094 C 590.746094 510.621094 590.746094 510.640625 590.726562 510.640625 C 577.21875 547 580.359375 585.089844 580.359375 585.089844 C 551.183594 616.71875 534.648438 648.679688 526.019531 678.441406 C 522.972656 688.960938 520.910156 699.199219 519.644531 709.058594 C 511.1875 774.03125 536.671875 822.308594 536.671875 822.308594 L 537.277344 822.371094 C 536.503906 825.96875 536.140625 828.089844 536.105469 828.308594 C 536.085938 826.96875 536.105469 825.609375 536.121094 824.238281 L 490.277344 873.421875 C 490.277344 873.421875 479.210938 878.390625 483.089844 849.660156 C 486.949219 820.929688 490.277344 781.691406 509.613281 744.121094 C 509.613281 744.121094 513.96875 732.839844 505.300781 733.308594 C 503.277344 733.410156 500.554688 734.160156 496.902344 735.828125 C 493.171875 737.53125 486.023438 740.03125 476.769531 742.960938 C 438 755.148438 362.640625 774.539062 351.023438 772.308594 C 351.023438 772.308594 361.769531 758.53125 378.402344 738.820312 C 406.460938 705.558594 451.320312 655.339844 489.671875 625.839844 C 494.402344 622.191406 499.039062 618.859375 503.523438 615.929688 C 503.523438 615.929688 385.289062 614.28125 372.574219 608.761719 C 372.574219 608.761719 381.125 598.820312 397.191406 583.898438 C 434.066406 549.671875 510.503906 489.109375 614.039062 461.78125 C 614.039062 461.78125 612.847656 458.28125 610.859375 452.039062 C 602.175781 424.828125 578.238281 345.460938 571.222656 276.210938 C 569.101562 255.398438 568.515625 235.511719 570.332031 218.21875 C 570.332031 218.21875 666.578125 294 720.84375 313.449219 C 720.84375 313.449219 754.636719 331.871094 784.324219 374.878906 L 815.351562 346.691406 L 815.351562 346.671875 L 818.113281 344.171875 C 818.113281 344.171875 821.179688 254.058594 972.734375 191.601562 C 972.734375 191.601562 973.019531 196.078125 972.941406 205.21875 C 972.828125 220.378906 971.691406 248.359375 966.585938 289.910156 C 966.585938 289.910156 1077.179688 282.738281 1136.570312 286.820312 C 1183.511719 290.058594 1203.558594 297.140625 1238.230469 288.828125 C 1247.421875 286.640625 1257.640625 283.359375 1269.671875 278.628906 C 1327.019531 256.121094 1378.21875 229.5 1432.480469 171.128906 C 1432.480469 171.128906 1422 299.5 1380.621094 391.761719 C 1370.25 414.859375 1357.960938 435.691406 1343.410156 451.679688 C 1343.410156 451.679688 1344.300781 451.851562 1345.960938 452.25 C 1346.300781 452.320312 1346.660156 452.421875 1347.058594 452.488281 C 1362.96875 456.308594 1428.089844 474.558594 1482.378906 528.71875 C 1489.53125 535.839844 1496.488281 543.601562 1503.128906 552.03125 L 1469.441406 559.109375 L 1469.421875 559.109375 C 1469.398438 559.089844 1469.398438 559.089844 1469.378906 559.109375 L 1439.648438 565.339844 C 1439.648438 565.339844 1508.578125 576.519531 1561.308594 610.988281 L 1561.328125 610.988281 C 1576.320312 620.75 1589.980469 632.429688 1600.398438 646.238281 L 1472.410156 661.578125 C 1472.410156 661.578125 1473.011719 662.359375 1474.109375 663.839844 "/>
<path fill-rule="nonzero" fill="rgb(68.777466%, 81.671143%, 76.96991%)" fill-opacity="1" d="M 1374.421875 541.25 C 1374.421875 541.25 1491.210938 624.929688 1466.28125 778.320312 C 1466.28125 778.320312 1453.980469 832.589844 1438.628906 852.039062 C 1438.628906 852.039062 1438.539062 854.269531 1438.238281 858.171875 C 1437.839844 813.800781 1425.859375 770.378906 1404.671875 731.378906 C 1377.878906 682.070312 1337.988281 640.601562 1293.398438 607 C 1236.371094 564.011719 1174.449219 547.488281 1104.328125 538.828125 C 1033.941406 530.121094 962.195312 532.210938 892.265625 543.710938 C 870.941406 547.210938 849.730469 551.578125 828.84375 557.109375 C 826.816406 557.648438 813.648438 559.871094 808.410156 562.160156 C 809.296875 554.800781 811.226562 528.800781 797.152344 515.269531 C 797.152344 515.269531 836.449219 481.011719 799.382812 437.03125 C 799.382812 437.03125 1120.5 307.789062 1374.421875 541.25 "/>
<path fill-rule="nonzero" fill="rgb(54.01001%, 67.567444%, 65.37323%)" fill-opacity="1" d="M 808.410156 562.160156 C 813.648438 559.871094 826.816406 557.648438 828.84375 557.109375 C 849.730469 551.578125 870.941406 547.210938 892.265625 543.710938 C 962.195312 532.210938 1033.941406 530.121094 1104.328125 538.828125 C 1174.449219 547.488281 1236.371094 564.011719 1293.398438 607 C 1337.988281 640.601562 1377.878906 682.070312 1404.671875 731.378906 C 1425.859375 770.378906 1437.839844 813.800781 1438.238281 858.171875 C 1436.929688 875.929688 1431.691406 928.570312 1414.058594 964.671875 L 1413.921875 964.820312 C 1407.871094 958.960938 1400.46875 953.738281 1391.710938 949.371094 C 1472.648438 667.300781 1195.75 592.488281 1195.75 592.488281 C 984.671875 518.28125 828.519531 574.910156 739.234375 629.160156 L 738.933594 628.660156 C 738.933594 628.660156 799.949219 581.929688 806.289062 563.710938 C 806.460938 563.199219 807.234375 562.691406 808.410156 562.160156 "/>
<path fill-rule="nonzero" fill="rgb(16.677856%, 21.437073%, 30.09491%)" fill-opacity="1" d="M 1406.199219 864.890625 C 1405.238281 886.171875 1401.949219 909.011719 1395.929688 933.46875 C 1395.929688 933.488281 1395.929688 933.511719 1395.910156 933.53125 C 1394.660156 938.730469 1393.238281 944.011719 1391.710938 949.371094 C 1386.828125 946.910156 1381.53125 944.730469 1375.78125 942.820312 C 1375.421875 942.710938 1375.058594 942.570312 1374.679688 942.460938 C 1374.679688 942.460938 1372.660156 949.289062 1369.191406 959.679688 C 1364.179688 974.71875 1356.101562 997.25 1346.699219 1017.289062 C 1339.449219 1032.75 1331.410156 1046.730469 1323.371094 1054.640625 C 1321.269531 1056.71875 1319.171875 1058.390625 1317.070312 1059.539062 L 1317.050781 1059.558594 C 1315.898438 1060.21875 1314.761719 1060.710938 1313.628906 1061.039062 C 1313.628906 1061.039062 1312.109375 972.410156 1306.089844 939.320312 C 1306.089844 939.320312 1300.738281 934.570312 1292.128906 927.039062 C 1275.140625 912.210938 1245.511719 886.488281 1219.480469 864.980469 L 1219.460938 864.960938 C 1204.339844 852.460938 1190.410156 841.371094 1180.921875 834.628906 C 1175.640625 830.898438 1171.71875 828.519531 1169.71875 827.988281 L 1239.308594 927.660156 L 1239.308594 927.679688 L 1243.898438 934.269531 C 1243.238281 933.949219 1227.371094 926.230469 1205.738281 915.589844 C 1205.738281 915.570312 1205.738281 915.570312 1205.71875 915.570312 C 1205.699219 915.558594 1205.660156 915.558594 1205.628906 915.539062 C 1188.660156 907.191406 1168.148438 897.070312 1148.679688 887.339844 C 1148.640625 887.308594 1148.578125 887.289062 1148.519531 887.269531 C 1125.550781 875.78125 1104.058594 864.871094 1091.5 858.070312 C 1054.390625 838.019531 952.089844 775.851562 941.0625 748.769531 L 942.0625 983.441406 C 942.0625 983.441406 937.371094 974.421875 930.050781 959.699219 C 913.171875 925.789062 882.257812 861.710938 862.390625 808.449219 L 862.371094 808.390625 C 851.792969 780.03125 844.339844 754.75 843.789062 738.738281 C 843.789062 738.738281 839.496094 746.589844 832.890625 760.601562 C 832.871094 760.609375 832.871094 760.609375 832.871094 760.609375 C 819.175781 789.679688 795.523438 845.230469 779.800781 911.980469 C 779.800781 912 779.800781 912 779.800781 912 C 776.71875 925.050781 773.9375 938.539062 771.589844 952.359375 C 771.589844 952.359375 749.566406 885.320312 749.488281 785.929688 C 749.488281 785.929688 749.488281 785.929688 749.488281 785.910156 C 749.488281 783.578125 749.507812 781.21875 749.527344 778.851562 C 749.527344 778.851562 670.023438 941.761719 673.960938 1088.429688 C 673.960938 1088.429688 652.769531 1050.328125 633.433594 1009.308594 C 620.71875 982.328125 608.816406 954.109375 604.257812 934.609375 C 604.257812 934.609375 599.316406 935.988281 592.070312 939.109375 C 586.945312 926.890625 527.4375 777.570312 649.269531 679.121094 C 649.269531 679.121094 644.195312 702.511719 653.335938 695.390625 C 656.042969 693.28125 675.246094 672.988281 709.660156 648.589844 C 718.515625 642.300781 728.375 635.738281 739.234375 629.160156 C 820.59375 579.730469 957.464844 528.328125 1140.789062 575.71875 C 1140.808594 575.71875 1140.808594 575.71875 1140.808594 575.71875 C 1158.679688 580.339844 1177 585.898438 1195.75 592.488281 C 1195.75 592.488281 1394.230469 646.089844 1405.980469 833.710938 C 1406.601562 843.710938 1406.699219 854.101562 1406.199219 864.890625 "/>
<path fill-rule="nonzero" fill="rgb(99.258423%, 90.180969%, 76.077271%)" fill-opacity="1" d="M 1313.628906 1061.039062 L 1283.539062 1164.980469 C 1275.03125 1197.359375 1228.988281 1232.300781 1228.988281 1232.300781 C 1209.148438 1276.21875 1121.320312 1301.820312 1096.230469 1308.628906 C 1093.300781 1309.421875 1089.640625 1310.351562 1085.441406 1311.371094 C 1053.691406 1319.210938 991.691406 1332.660156 991.691406 1332.660156 C 981.757812 1326.929688 942.234375 1320.609375 942.234375 1320.609375 C 932.546875 1319.679688 923.257812 1318.519531 914.34375 1317.160156 C 731.496094 1288.929688 706.578125 1169.511719 706.578125 1169.511719 L 673.960938 1088.429688 C 672.066406 1017.859375 689.492188 943.519531 708.09375 885.398438 C 710.910156 876.539062 713.769531 868.058594 716.585938 860.039062 C 719.597656 851.46875 722.566406 843.410156 725.402344 835.960938 C 738.800781 800.859375 749.527344 778.851562 749.527344 778.851562 C 749.167969 816.488281 751.988281 849.730469 755.734375 876.789062 C 757.191406 887.230469 758.761719 896.75 760.351562 905.238281 C 760.445312 905.71875 760.519531 906.191406 760.613281 906.660156 C 766.121094 935.691406 771.589844 952.359375 771.589844 952.359375 C 773.878906 938.859375 776.585938 925.679688 779.59375 912.890625 C 781.445312 904.878906 783.433594 897.050781 785.515625 889.390625 C 798.492188 841.480469 814.746094 800.839844 826.800781 773.878906 C 836.714844 751.660156 843.789062 738.738281 843.789062 738.738281 C 845.359375 785.320312 905.378906 910.238281 930.824219 961.269531 C 937.710938 975.039062 942.0625 983.441406 942.0625 983.441406 L 941.457031 840.171875 L 941.0625 748.769531 C 952.089844 775.851562 1054.390625 838.019531 1091.5 858.070312 C 1106.390625 866.109375 1133.839844 879.980469 1161.410156 893.679688 C 1171.039062 898.46875 1180.691406 903.238281 1189.808594 907.738281 C 1192.929688 909.269531 1195.980469 910.789062 1198.949219 912.238281 C 1223.980469 924.558594 1243.179688 933.910156 1243.898438 934.269531 L 1239.53125 928.011719 L 1219.949219 899.960938 L 1203.730469 876.730469 L 1169.71875 827.988281 C 1175.679688 829.578125 1198.230469 847.308594 1223.339844 868.199219 C 1230.191406 873.871094 1237.21875 879.789062 1244.171875 885.699219 C 1276.160156 912.828125 1306.089844 939.320312 1306.089844 939.320312 C 1310.648438 964.371094 1312.621094 1021.210938 1313.300781 1047.371094 C 1313.53125 1055.789062 1313.628906 1061.039062 1313.628906 1061.039062 "/>
<path fill-rule="nonzero" fill="rgb(68.777466%, 81.671143%, 76.96991%)" fill-opacity="1" d="M 797.152344 515.269531 C 811.226562 528.800781 809.296875 554.800781 808.410156 562.160156 C 807.234375 562.691406 806.460938 563.199219 806.289062 563.710938 C 799.949219 581.929688 738.933594 628.660156 738.933594 628.660156 L 739.234375 629.160156 C 686.21875 661.359375 656.742188 692.730469 653.335938 695.390625 C 644.195312 702.511719 649.269531 679.121094 649.269531 679.121094 L 652.578125 650.859375 C 652.578125 650.859375 654.242188 642.699219 657.308594 631.96875 C 661.773438 616.328125 669.191406 595.210938 678.632812 586.128906 C 678.632812 586.128906 642.890625 513.25 703.511719 446.738281 C 703.511719 446.738281 741.144531 397 799.382812 437.03125 C 836.449219 481.011719 797.152344 515.269531 797.152344 515.269531 "/>
<path fill-rule="nonzero" fill="rgb(97.744751%, 90.975952%, 78.81012%)" fill-opacity="1" d="M 706.578125 1169.511719 C 565.640625 1119.949219 546.339844 1060.730469 546.339844 1060.730469 C 518.488281 1005.03125 542.0625 971.621094 567 953.320312 C 573.492188 948.53125 580.09375 944.808594 585.882812 941.949219 C 588.078125 940.871094 590.160156 939.921875 592.070312 939.109375 C 599.316406 935.988281 604.257812 934.609375 604.257812 934.609375 C 614.039062 976.480469 657.726562 1058.628906 670.476562 1082.058594 C 672.671875 1086.121094 673.960938 1088.429688 673.960938 1088.429688 L 706.578125 1169.511719 "/>
<path fill-rule="nonzero" fill="rgb(68.777466%, 81.671143%, 76.96991%)" fill-opacity="1" d="M 690.15625 463.679688 C 648.679688 525.03125 678.632812 586.128906 678.632812 586.128906 C 669.191406 595.210938 661.773438 616.328125 657.308594 631.96875 L 656.628906 631.960938 C 654.90625 632.371094 653.222656 632.730469 651.574219 633.03125 C 584.917969 646.011719 580.359375 585.089844 580.359375 585.089844 C 580.359375 585.089844 567.605469 430.980469 703.511719 446.738281 C 698.40625 452.359375 693.957031 458.019531 690.15625 463.679688 "/>
<path fill-rule="nonzero" fill="rgb(68.777466%, 81.671143%, 76.96991%)" fill-opacity="1" d="M 656.628906 631.960938 L 657.308594 631.96875 C 654.242188 642.699219 652.578125 650.859375 652.578125 650.859375 C 570.785156 686.21875 542.953125 795.578125 537.277344 822.371094 L 536.671875 822.308594 C 536.671875 822.308594 472.964844 701.578125 580.359375 585.089844 C 580.359375 585.089844 585.144531 649.058594 656.628906 631.960938 "/>
<path fill-rule="nonzero" fill="rgb(54.01001%, 67.567444%, 65.37323%)" fill-opacity="1" d="M 652.578125 650.859375 L 649.269531 679.121094 C 527.4375 777.570312 586.945312 926.890625 592.070312 939.109375 C 585.089844 942.121094 575.949219 946.738281 567 953.320312 C 564.789062 948.96875 536.3125 891.601562 536.105469 828.328125 C 536.105469 828.328125 536.105469 828.328125 536.105469 828.308594 C 536.140625 828.089844 536.503906 825.96875 537.277344 822.371094 C 542.953125 795.578125 570.785156 686.21875 652.578125 650.859375 "/>
<path fill-rule="nonzero" fill="rgb(72.401428%, 61.383057%, 56.822205%)" fill-opacity="1" d="M 760.613281 906.660156 L 755.316406 929.179688 C 745.953125 915.101562 732.082031 864.601562 725.402344 835.960938 C 738.800781 800.859375 749.527344 778.851562 749.527344 778.851562 C 749.015625 831.828125 754.824219 876.109375 760.613281 906.660156 "/>
<path fill-rule="nonzero" fill="rgb(72.401428%, 61.383057%, 56.822205%)" fill-opacity="1" d="M 843.789062 738.738281 C 845.359375 785.320312 905.378906 910.238281 930.824219 961.269531 L 927.515625 1018.539062 L 841.425781 776.601562 C 835.976562 825.640625 849.050781 879.039062 849.050781 879.039062 C 836.128906 852.441406 829.5625 801.96875 826.800781 773.878906 C 836.714844 751.660156 843.789062 738.738281 843.789062 738.738281 "/>
<path fill-rule="nonzero" fill="rgb(72.401428%, 61.383057%, 56.822205%)" fill-opacity="1" d="M 1091.5 858.070312 C 1111.589844 868.929688 1154.578125 890.371094 1189.808594 907.738281 C 1163.109375 920.339844 1118.230469 948.78125 1118.230469 948.78125 C 1069.828125 933.230469 977.558594 866.949219 941.457031 840.171875 L 941.0625 748.769531 C 952.089844 775.851562 1054.390625 838.019531 1091.5 858.070312 "/>
<path fill-rule="nonzero" fill="rgb(72.401428%, 61.383057%, 56.822205%)" fill-opacity="1" d="M 1286.078125 1100.28125 C 1315.5 1016.359375 1268.628906 920.460938 1268.628906 920.460938 L 1274.078125 964.050781 C 1274.078125 964.050781 1256.769531 945.011719 1239.53125 928.011719 L 1169.71875 827.988281 C 1184.761719 832 1306.089844 939.320312 1306.089844 939.320312 C 1310.648438 964.371094 1312.621094 1021.210938 1313.300781 1047.371094 L 1286.078125 1100.28125 "/>
<path fill-rule="nonzero" fill="rgb(98.736572%, 98.814392%, 98.623657%)" fill-opacity="1" d="M 715.003906 1043.601562 C 715.003906 1043.601562 745.515625 1120.980469 821.804688 1095.910156 C 898.09375 1070.851562 893.734375 1020.71875 893.734375 1020.71875 C 893.734375 1020.71875 880.65625 979.300781 855.589844 971.671875 C 830.523438 964.039062 764.042969 955.328125 740.066406 969.488281 C 716.09375 983.660156 715.003906 1043.601562 715.003906 1043.601562 "/>
<path fill-rule="nonzero" fill="rgb(1.716614%, 2.203369%, 2.272034%)" fill-opacity="1" d="M 867.496094 982.480469 C 867.496094 982.480469 872.699219 1002.019531 871.601562 1023.96875 C 870.621094 1043.859375 864.46875 1065.710938 844.621094 1076.851562 C 826.136719 1087.238281 803.355469 1092.460938 783.015625 1084.359375 C 764.398438 1076.96875 753.597656 1060.679688 748.410156 1042.019531 C 743.359375 1023.761719 743.699219 1003.230469 747.390625 986.488281 C 747.390625 986.488281 723.929688 989.339844 717.058594 1053.980469 C 717.058594 1053.980469 674.734375 958.46875 787.425781 952.171875 C 787.425781 952.171875 814.3125 949.308594 896.671875 973.910156 L 883.523438 975.609375 L 904.089844 1005.351562 C 903.238281 1004.730469 875.953125 984.730469 867.496094 982.480469 "/>
<path fill-rule="nonzero" fill="rgb(16.677856%, 21.437073%, 30.09491%)" fill-opacity="1" d="M 871.601562 1023.96875 C 870.621094 1043.859375 864.46875 1065.710938 844.621094 1076.851562 C 826.136719 1087.238281 803.355469 1092.460938 783.015625 1084.359375 C 764.398438 1076.96875 753.597656 1060.679688 748.410156 1042.019531 L 871.601562 1023.96875 "/>
<path fill-rule="nonzero" fill="rgb(98.284912%, 98.135376%, 97.904968%)" fill-opacity="1" d="M 766.832031 999.640625 C 766.832031 1008.800781 762.988281 1016.230469 758.253906 1016.230469 C 753.511719 1016.230469 749.671875 1008.800781 749.671875 999.640625 C 749.671875 990.480469 753.511719 983.050781 758.253906 983.050781 C 762.988281 983.050781 766.832031 990.480469 766.832031 999.640625 "/>
<path fill-rule="nonzero" fill="rgb(98.736572%, 98.814392%, 98.623657%)" fill-opacity="1" d="M 1277.621094 1043.601562 C 1277.621094 1043.601562 1247.101562 1120.980469 1170.820312 1095.910156 C 1094.53125 1070.851562 1098.890625 1020.71875 1098.890625 1020.71875 C 1098.890625 1020.71875 1111.96875 979.300781 1137.03125 971.671875 C 1162.101562 964.039062 1228.578125 955.328125 1252.550781 969.488281 C 1276.53125 983.660156 1277.621094 1043.601562 1277.621094 1043.601562 "/>
<path fill-rule="nonzero" fill="rgb(1.716614%, 2.203369%, 2.272034%)" fill-opacity="1" d="M 1125.121094 982.480469 C 1125.121094 982.480469 1119.921875 1002.019531 1121.019531 1023.96875 C 1122 1043.859375 1128.148438 1065.710938 1148 1076.851562 C 1166.480469 1087.238281 1189.261719 1092.460938 1209.601562 1084.359375 C 1228.21875 1076.96875 1239.03125 1060.679688 1244.210938 1042.019531 C 1249.261719 1023.761719 1248.921875 1003.230469 1245.230469 986.488281 C 1245.230469 986.488281 1268.691406 989.339844 1275.558594 1053.980469 C 1275.558594 1053.980469 1317.890625 958.46875 1205.199219 952.171875 C 1205.199219 952.171875 1178.308594 949.308594 1095.949219 973.910156 L 1109.101562 975.609375 L 1088.53125 1005.351562 C 1089.378906 1004.730469 1116.671875 984.730469 1125.121094 982.480469 "/>
<path fill-rule="nonzero" fill="rgb(16.677856%, 21.437073%, 30.09491%)" fill-opacity="1" d="M 1121.019531 1023.96875 C 1122 1043.859375 1128.148438 1065.710938 1148 1076.851562 C 1166.480469 1087.238281 1189.261719 1092.460938 1209.601562 1084.359375 C 1228.21875 1076.96875 1239.03125 1060.679688 1244.210938 1042.019531 L 1121.019531 1023.96875 "/>
<path fill-rule="nonzero" fill="rgb(98.284912%, 98.135376%, 97.904968%)" fill-opacity="1" d="M 1225.789062 999.640625 C 1225.789062 1008.800781 1229.628906 1016.230469 1234.371094 1016.230469 C 1239.109375 1016.230469 1242.949219 1008.800781 1242.949219 999.640625 C 1242.949219 990.480469 1239.109375 983.050781 1234.371094 983.050781 C 1229.628906 983.050781 1225.789062 990.480469 1225.789062 999.640625 "/>
<path fill-rule="nonzero" fill="rgb(8.47168%, 7.766724%, 13.623047%)" fill-opacity="1" d="M 755.734375 876.789062 C 757.191406 887.230469 758.761719 896.75 760.351562 905.238281 C 739.972656 897.261719 721.542969 890.351562 708.09375 885.398438 C 710.910156 876.539062 713.769531 868.058594 716.585938 860.039062 C 728.621094 865.210938 742.035156 870.960938 755.734375 876.789062 "/>
<path fill-rule="nonzero" fill="rgb(8.47168%, 7.766724%, 13.623047%)" fill-opacity="1" d="M 904.675781 973.339844 C 881.308594 955.859375 827.859375 932.320312 779.59375 912.890625 C 781.445312 904.878906 783.433594 897.050781 785.515625 889.390625 C 817.605469 902.878906 846.683594 914.78125 857.773438 918.410156 C 887.515625 928.140625 904.675781 973.339844 904.675781 973.339844 "/>
<path fill-rule="nonzero" fill="rgb(8.47168%, 7.766724%, 13.623047%)" fill-opacity="1" d="M 1189.808594 907.738281 C 1192.929688 909.269531 1195.980469 910.789062 1198.949219 912.238281 C 1151.871094 939.660156 1089.46875 975.230469 1076.289062 979.050781 C 1076.289062 979.050781 1082.609375 930.011719 1161.410156 893.679688 C 1171.039062 898.46875 1180.691406 903.238281 1189.808594 907.738281 "/>
<path fill-rule="nonzero" fill="rgb(8.47168%, 7.766724%, 13.623047%)" fill-opacity="1" d="M 1244.171875 885.699219 C 1238.25 889.199219 1229.859375 894.160156 1219.949219 899.960938 L 1203.730469 876.730469 C 1210.941406 873.800781 1217.449219 870.941406 1223.339844 868.199219 C 1230.191406 873.871094 1237.21875 879.789062 1244.171875 885.699219 "/>
<path fill-rule="nonzero" fill="rgb(83.239746%, 75.234985%, 66.268921%)" fill-opacity="1" d="M 853.992188 1142.050781 C 853.992188 1153.261719 820.039062 1162.351562 778.15625 1162.351562 C 736.273438 1162.351562 702.320312 1153.261719 702.320312 1142.050781 C 702.320312 1130.828125 736.273438 1121.738281 778.15625 1121.738281 C 820.039062 1121.738281 853.992188 1130.828125 853.992188 1142.050781 "/>
<path fill-rule="nonzero" fill="rgb(98.667908%, 95.819092%, 91.600037%)" fill-opacity="1" d="M 773.597656 1141.21875 C 773.597656 1144.191406 767.476562 1146.601562 759.921875 1146.601562 C 752.371094 1146.601562 746.246094 1144.191406 746.246094 1141.21875 C 746.246094 1138.238281 752.371094 1135.828125 759.921875 1135.828125 C 767.476562 1135.828125 773.597656 1138.238281 773.597656 1141.21875 "/>
<path fill-rule="nonzero" fill="rgb(83.239746%, 75.234985%, 66.268921%)" fill-opacity="1" d="M 1131.421875 1142.050781 C 1131.421875 1153.261719 1165.378906 1162.351562 1207.261719 1162.351562 C 1249.140625 1162.351562 1283.089844 1153.261719 1283.089844 1142.050781 C 1283.089844 1130.828125 1249.140625 1121.738281 1207.261719 1121.738281 C 1165.378906 1121.738281 1131.421875 1130.828125 1131.421875 1142.050781 "/>
<path fill-rule="nonzero" fill="rgb(98.667908%, 95.819092%, 91.600037%)" fill-opacity="1" d="M 1211.820312 1141.21875 C 1211.820312 1144.191406 1217.941406 1146.601562 1225.488281 1146.601562 C 1233.050781 1146.601562 1239.171875 1144.191406 1239.171875 1141.21875 C 1239.171875 1138.238281 1233.050781 1135.828125 1225.488281 1135.828125 C 1217.941406 1135.828125 1211.820312 1138.238281 1211.820312 1141.21875 "/>
<path fill-rule="nonzero" fill="rgb(1.65863%, 2.127075%, 2.145386%)" fill-opacity="1" d="M 983.457031 1129.449219 C 983.457031 1129.449219 969.046875 1134.25 978.117188 1144.390625 C 987.191406 1154.53125 987.726562 1148.121094 991.996094 1155.601562 C 991.996094 1155.601562 991.996094 1144.921875 983.457031 1129.449219 "/>
<path fill-rule="nonzero" fill="rgb(9.230042%, 4.64325%, 4.808044%)" fill-opacity="1" d="M 1056.640625 1230.011719 C 992.238281 1213.78125 937.03125 1229.300781 936.480469 1229.460938 L 935.433594 1225.828125 C 935.992188 1225.671875 992.183594 1209.859375 1057.570312 1226.339844 L 1056.640625 1230.011719 "/>
<path fill-rule="nonzero" fill="rgb(68.704224%, 60.687256%, 57.168579%)" fill-opacity="1" d="M 670.476562 1082.058594 C 670.214844 1082.980469 669.910156 1083.851562 669.589844 1084.648438 C 663.0625 1100.640625 662.324219 1115.890625 662.324219 1115.890625 C 647.792969 1118.800781 633.261719 1078.839844 630.367188 1068.660156 C 627.453125 1058.5 630.367188 1032.328125 630.367188 1032.328125 C 605.789062 1012.128906 591.464844 964.390625 585.882812 941.949219 C 588.078125 940.871094 590.160156 939.921875 592.070312 939.109375 C 599.316406 935.988281 604.257812 934.609375 604.257812 934.609375 C 614.039062 976.480469 657.726562 1058.628906 670.476562 1082.058594 "/>
<path fill-rule="nonzero" fill="rgb(52.456665%, 42.648315%, 41.667175%)" fill-opacity="1" d="M 645.285156 1045.929688 C 644.765625 1045.589844 644.238281 1045.328125 643.710938 1045.179688 C 630.902344 1041.511719 629.15625 1061.460938 630.359375 1068.671875 C 634.71875 1094.820312 649.976562 1120.25 662.328125 1115.890625 C 674.679688 1111.53125 660.148438 1073.03125 660.148438 1073.03125 C 657.089844 1067.21875 651.5625 1050.078125 645.285156 1045.929688 "/>
<path fill-rule="nonzero" fill="rgb(12.944031%, 5.632019%, 5.743408%)" fill-opacity="1" d="M 581.664062 1016.648438 C 581.664062 1016.648438 638.765625 1034.820312 633.054688 1051.949219 C 627.34375 1069.078125 630.980469 1081.539062 633.054688 1086.730469 C 635.132812 1091.929688 644.476562 1119.960938 663.683594 1117.878906 C 663.683594 1117.878906 665.761719 1115.289062 660.050781 1114.25 C 654.339844 1113.210938 627.863281 1092.960938 636.171875 1058.179688 C 636.171875 1058.179688 641.878906 1045.210938 632.015625 1038.980469 C 622.152344 1032.75 615.925781 1024.441406 581.664062 1016.648438 "/>
<path fill-rule="nonzero" fill="rgb(68.704224%, 60.687256%, 57.168579%)" fill-opacity="1" d="M 1395.339844 949.121094 C 1395.191406 949.71875 1395.039062 950.351562 1394.871094 951.011719 C 1388.96875 974.128906 1374.78125 1019.839844 1350.859375 1039.5 C 1350.859375 1039.5 1353.769531 1065.671875 1350.859375 1075.828125 C 1347.96875 1086.011719 1333.441406 1125.96875 1318.898438 1123.058594 C 1318.898438 1123.058594 1318.171875 1107.808594 1311.640625 1091.820312 C 1311.539062 1091.570312 1308.71875 1091.519531 1304.808594 1091.519531 L 1313.628906 1061.039062 C 1333.398438 1055.378906 1355.171875 1000.359375 1366.601562 967.28125 C 1371.28125 958.410156 1374.808594 950.179688 1376.628906 943.101562 C 1376.761719 942.648438 1376.878906 942.210938 1376.96875 941.78125 C 1376.96875 941.78125 1381.910156 943.160156 1389.160156 946.28125 C 1391.070312 947.101562 1393.148438 948.039062 1395.339844 949.121094 "/>
<path fill-rule="nonzero" fill="rgb(52.456665%, 42.648315%, 41.667175%)" fill-opacity="1" d="M 1335.941406 1053.101562 C 1336.460938 1052.761719 1336.980469 1052.5 1337.511719 1052.351562 C 1350.320312 1048.679688 1352.058594 1068.628906 1350.859375 1075.839844 C 1346.5 1101.988281 1331.25 1127.421875 1318.890625 1123.058594 C 1306.539062 1118.699219 1321.070312 1080.199219 1321.070312 1080.199219 C 1324.128906 1074.390625 1329.660156 1057.25 1335.941406 1053.101562 "/>
<path fill-rule="nonzero" fill="rgb(12.944031%, 5.632019%, 5.743408%)" fill-opacity="1" d="M 1399.558594 1023.820312 C 1399.558594 1023.820312 1342.460938 1041.988281 1348.171875 1059.121094 C 1353.878906 1076.25 1350.238281 1088.710938 1348.171875 1093.898438 C 1346.089844 1099.089844 1336.738281 1127.128906 1317.539062 1125.050781 C 1317.539062 1125.050781 1315.460938 1122.449219 1321.171875 1121.421875 C 1326.878906 1120.378906 1353.359375 1100.128906 1345.050781 1065.351562 C 1345.050781 1065.351562 1339.339844 1052.371094 1349.199219 1046.140625 C 1359.070312 1039.921875 1365.300781 1031.609375 1399.558594 1023.820312 "/>
<path fill-rule="nonzero" fill="rgb(8.006287%, 10.89325%, 20.176697%)" fill-opacity="1" d="M 653.5625 726.101562 C 589.894531 798.078125 610.652344 847.910156 614.8125 904.660156 C 616.875 932.75 625.371094 974.398438 633.433594 1009.308594 C 620.71875 982.328125 608.816406 954.109375 604.257812 934.609375 C 604.257812 934.609375 599.316406 935.988281 592.070312 939.109375 C 586.945312 926.890625 527.4375 777.570312 649.269531 679.121094 C 649.269531 679.121094 644.195312 702.511719 653.335938 695.390625 C 656.042969 693.28125 675.246094 672.988281 709.660156 648.589844 C 698.441406 668.789062 680.808594 695.28125 653.5625 726.101562 "/>
<path fill-rule="nonzero" fill="rgb(8.006287%, 10.89325%, 20.176697%)" fill-opacity="1" d="M 779.800781 911.980469 C 779.800781 912 779.800781 912 779.800781 912 C 776.71875 925.050781 773.9375 938.539062 771.589844 952.359375 C 771.589844 952.359375 749.566406 885.320312 749.488281 785.929688 C 749.488281 785.929688 749.488281 785.929688 749.488281 785.910156 C 754.296875 773.570312 761.371094 757.089844 768.46875 746.859375 C 768.46875 746.859375 762.886719 854.039062 779.800781 911.980469 "/>
<path fill-rule="nonzero" fill="rgb(8.006287%, 10.89325%, 20.176697%)" fill-opacity="1" d="M 862.371094 808.390625 C 851.792969 780.03125 844.339844 754.75 843.789062 738.738281 C 843.789062 738.738281 839.496094 746.589844 832.890625 760.601562 C 837.355469 734.109375 843.203125 698.398438 843.203125 698.398438 L 862.371094 808.390625 "/>
<path fill-rule="nonzero" fill="rgb(8.006287%, 10.89325%, 20.176697%)" fill-opacity="1" d="M 1148.519531 887.269531 C 1125.550781 875.78125 1104.058594 864.871094 1091.5 858.070312 C 1054.390625 838.019531 952.089844 775.851562 941.0625 748.769531 L 942.0625 983.441406 C 942.0625 983.441406 937.371094 974.421875 930.050781 959.699219 L 935.953125 717.800781 C 935.953125 717.800781 1033.960938 821.921875 1148.519531 887.269531 "/>
<path fill-rule="nonzero" fill="rgb(8.006287%, 10.89325%, 20.176697%)" fill-opacity="1" d="M 1239.308594 927.679688 L 1243.898438 934.269531 C 1243.238281 933.949219 1227.371094 926.230469 1205.738281 915.589844 C 1216.921875 920.210938 1228.121094 924.28125 1239.308594 927.660156 L 1239.308594 927.679688 "/>
<path fill-rule="nonzero" fill="rgb(8.006287%, 10.89325%, 20.176697%)" fill-opacity="1" d="M 1219.460938 864.960938 C 1204.339844 852.460938 1190.410156 841.371094 1180.921875 834.628906 L 1093.75 716.398438 L 1219.460938 864.960938 "/>
<path fill-rule="nonzero" fill="rgb(8.006287%, 10.89325%, 20.176697%)" fill-opacity="1" d="M 1201.710938 680.410156 C 1222.828125 719.691406 1239.308594 756.359375 1252.148438 789.449219 L 1201.710938 680.410156 "/>
<path fill-rule="nonzero" fill="rgb(8.006287%, 10.89325%, 20.176697%)" fill-opacity="1" d="M 1317.070312 1059.539062 L 1317.050781 1059.558594 C 1315.898438 1060.21875 1314.761719 1060.710938 1313.628906 1061.039062 C 1313.628906 1061.039062 1312.109375 972.410156 1306.089844 939.320312 C 1306.089844 939.320312 1300.738281 934.570312 1292.128906 927.039062 C 1286.570312 896.539062 1275.199219 848.761719 1252.148438 789.449219 L 1287.53125 865.910156 L 1281.988281 789.769531 C 1281.988281 789.769531 1359.050781 962.121094 1317.070312 1059.539062 "/>
<path fill-rule="nonzero" fill="rgb(8.006287%, 10.89325%, 20.176697%)" fill-opacity="1" d="M 1395.929688 933.46875 C 1410.03125 743.871094 1255.261719 632.011719 1140.808594 575.71875 C 1158.679688 580.339844 1177 585.898438 1195.75 592.488281 C 1195.75 592.488281 1462.210938 664.460938 1395.929688 933.46875 "/>
<path fill-rule="nonzero" fill="rgb(97.991943%, 92.602539%, 78.42865%)" fill-opacity="1" d="M 1406.199219 864.890625 L 1375.78125 942.820312 L 1369.191406 959.679688 L 1346.699219 1017.289062 C 1339.449219 1032.75 1331.410156 1046.730469 1323.371094 1054.640625 L 1405.980469 833.710938 C 1406.601562 843.710938 1406.699219 854.101562 1406.199219 864.890625 "/>
<path fill-rule="nonzero" fill="rgb(8.006287%, 10.89325%, 20.176697%)" fill-opacity="1" d="M 526.019531 678.441406 C 522.972656 688.960938 520.910156 699.199219 519.644531 709.058594 L 505.300781 733.308594 C 503.277344 733.410156 500.554688 734.160156 496.902344 735.828125 C 477.5625 744.679688 365.402344 775.070312 351.023438 772.308594 C 351.023438 772.308594 361.769531 758.53125 378.402344 738.820312 L 526.019531 678.441406 "/>
<path fill-rule="nonzero" fill="rgb(8.006287%, 10.89325%, 20.176697%)" fill-opacity="1" d="M 561.929688 580.550781 L 540.246094 621.511719 L 489.671875 625.839844 C 494.402344 622.191406 499.039062 618.859375 503.523438 615.929688 C 503.523438 615.929688 385.289062 614.28125 372.574219 608.761719 C 372.574219 608.761719 381.125 598.820312 397.191406 583.898438 C 449.089844 576.988281 533.472656 568.339844 561.929688 580.550781 "/>
<path fill-rule="nonzero" fill="rgb(1.731873%, 2.224731%, 2.325439%)" fill-opacity="1" d="M 519.644531 709.058594 C 511.1875 774.03125 536.671875 822.308594 536.671875 822.308594 L 537.277344 822.371094 C 536.503906 825.96875 536.140625 828.089844 536.105469 828.308594 C 536.085938 826.96875 536.105469 825.609375 536.121094 824.238281 L 490.277344 873.421875 C 490.277344 873.421875 479.210938 878.390625 483.089844 849.660156 C 486.949219 820.929688 490.277344 781.691406 509.613281 744.121094 C 509.613281 744.121094 513.96875 732.839844 505.300781 733.308594 C 503.277344 733.410156 500.554688 734.160156 496.902344 735.828125 C 493.171875 737.53125 486.023438 740.03125 476.769531 742.960938 C 504.109375 614.238281 564.769531 538.320312 590.726562 510.640625 C 577.21875 547 580.359375 585.089844 580.359375 585.089844 C 551.183594 616.71875 534.648438 648.679688 526.019531 678.441406 C 522.972656 688.960938 520.910156 699.199219 519.644531 709.058594 "/>
<path fill-rule="nonzero" fill="rgb(8.006287%, 10.89325%, 20.176697%)" fill-opacity="1" d="M 645.3125 452.210938 C 635.265625 455.96875 626.753906 461.179688 619.542969 467.398438 L 610.859375 452.039062 C 602.175781 424.828125 578.238281 345.460938 571.222656 276.210938 C 582.609375 331.589844 602.117188 400.101562 631.824219 425.101562 C 631.824219 425.101562 636.648438 404.609375 651.101562 387.730469 C 651.101562 387.730469 641.566406 425.929688 645.3125 452.210938 "/>
<path fill-rule="nonzero" fill="rgb(68.777466%, 81.671143%, 76.96991%)" fill-opacity="1" d="M 660.355469 432.671875 C 658.925781 434.898438 672.082031 379.910156 732.378906 347.25 C 732.378906 347.25 711.441406 353.109375 660.355469 432.671875 "/>
<path fill-rule="nonzero" fill="rgb(8.006287%, 10.89325%, 20.176697%)" fill-opacity="1" d="M 972.941406 205.21875 C 803.1875 283.78125 824.511719 410.191406 824.511719 411.761719 L 824.492188 411.738281 C 819.210938 394.261719 816.621094 367.820312 815.351562 346.691406 L 815.351562 346.671875 L 818.113281 344.171875 C 818.113281 344.171875 821.179688 254.058594 972.734375 191.601562 C 972.734375 191.601562 973.019531 196.078125 972.941406 205.21875 "/>
<path fill-rule="nonzero" fill="rgb(8.006287%, 10.89325%, 20.176697%)" fill-opacity="1" d="M 1343.410156 451.679688 C 1343.410156 451.679688 1344.300781 451.851562 1345.960938 452.25 L 1299.488281 483.429688 C 1225.550781 436.199219 1149.28125 413.859375 1079.238281 405.488281 C 1161.789062 390.769531 1290.539062 374.449219 1380.621094 391.761719 C 1370.25 414.859375 1357.960938 435.691406 1343.410156 451.679688 "/>
<path fill-rule="nonzero" fill="rgb(11.459351%, 10.473633%, 18.960571%)" fill-opacity="1" d="M 1380.621094 391.761719 C 1370.25 414.859375 1357.960938 435.691406 1343.410156 451.679688 C 1343.410156 451.679688 1344.300781 451.851562 1345.960938 452.25 C 1346.300781 452.320312 1346.660156 452.421875 1347.058594 452.488281 L 1299.808594 483.640625 C 1299.699219 483.558594 1299.609375 483.5 1299.488281 483.429688 C 1294.519531 480.25 1289.519531 477.179688 1284.53125 474.210938 C 1321.160156 438.039062 1394.851562 349.339844 1417.519531 203.78125 C 1417.519531 203.78125 1333.949219 310.289062 1238.230469 288.828125 C 1247.421875 286.640625 1257.640625 283.359375 1269.671875 278.628906 C 1327.019531 256.121094 1378.21875 229.5 1432.480469 171.128906 C 1432.480469 171.128906 1422 299.5 1380.621094 391.761719 "/>
<g clip-path="url(#clip-0)">
<g clip-path="url(#clip-1)">
<g clip-path="url(#clip-2)">
<path fill-rule="nonzero" fill="url(#linear-pattern-0)" d="M 1125.589844 457.136719 L 1341.90625 381.894531 L 1293.28125 242.09375 L 1076.964844 317.335938 Z M 1125.589844 457.136719 "/>
</g>
</g>
</g>
<path fill-rule="nonzero" fill="rgb(8.006287%, 10.89325%, 20.176697%)" fill-opacity="1" d="M 1503.128906 552.03125 L 1469.441406 559.109375 L 1469.421875 559.109375 C 1469.398438 559.109375 1469.398438 559.109375 1469.378906 559.109375 C 1449.039062 558.558594 1424.441406 559.410156 1399.300781 563.800781 C 1385.089844 548.890625 1374.421875 541.25 1374.421875 541.25 C 1372.699219 539.660156 1370.96875 538.109375 1369.25 536.578125 C 1393.320312 530.199219 1434.660156 522.691406 1482.378906 528.71875 C 1489.53125 535.839844 1496.488281 543.601562 1503.128906 552.03125 "/>
<path fill-rule="nonzero" fill="rgb(8.006287%, 10.89325%, 20.176697%)" fill-opacity="1" d="M 1472.410156 661.578125 C 1472.410156 661.578125 1473.011719 662.359375 1474.109375 663.839844 C 1470.441406 663.140625 1464.820312 662.28125 1458.289062 662.078125 C 1453.558594 647.359375 1447.679688 633.941406 1441.230469 621.828125 L 1456.339844 620.46875 L 1561.308594 610.988281 L 1561.328125 610.988281 C 1576.320312 620.75 1589.980469 632.429688 1600.398438 646.238281 L 1472.410156 661.578125 "/>
<path fill-rule="nonzero" fill="rgb(8.006287%, 10.89325%, 20.176697%)" fill-opacity="1" d="M 1521.859375 825.441406 L 1521.859375 825.460938 C 1521.789062 826.480469 1521.679688 827.480469 1521.558594 828.5 C 1521.558594 828.5 1478.558594 797.769531 1466.28125 778.320312 C 1469.191406 760.390625 1470.171875 743.398438 1469.609375 727.390625 L 1513.558594 809.851562 L 1521.859375 825.441406 "/>
<path fill-rule="nonzero" fill="rgb(68.777466%, 81.671143%, 76.96991%)" fill-opacity="1" d="M 1430.800781 603.96875 C 1425.410156 595.511719 1419.851562 587.910156 1414.421875 581.109375 C 1396.121094 538.28125 1362.800781 501.671875 1362.800781 501.671875 C 1416.121094 540.929688 1428.109375 585.261719 1430.800781 603.96875 "/>
<path fill-rule="nonzero" fill="rgb(56.002808%, 68.612671%, 66.894531%)" fill-opacity="1" d="M 678.632812 586.128906 C 669.191406 595.210938 661.773438 616.328125 657.308594 631.96875 L 656.628906 631.960938 C 654.90625 632.371094 653.222656 632.730469 651.574219 633.03125 C 648.246094 621.640625 646.582031 603.539062 656.722656 580.570312 C 656.722656 580.570312 637.933594 511.921875 690.15625 463.679688 C 648.679688 525.03125 678.632812 586.128906 678.632812 586.128906 "/>
<path fill-rule="nonzero" fill="rgb(16.523743%, 4.586792%, 7.78656%)" fill-opacity="1" d="M 860.667969 1446.46875 C 807.046875 1444.71875 758.402344 1432.539062 727.410156 1422.78125 C 732.253906 1419.011719 736.871094 1415.738281 740.617188 1413.601562 C 753.824219 1406.050781 787.425781 1378.109375 820.953125 1370.011719 L 853.117188 1430.550781 L 860.667969 1446.46875 "/>
<path fill-rule="nonzero" fill="rgb(50.559998%, 59.802246%, 64.141846%)" fill-opacity="1" d="M 911.28125 1444.71875 C 894.175781 1446.539062 877.183594 1447 860.667969 1446.46875 L 853.117188 1430.550781 L 890.617188 1402.25 L 911.28125 1444.71875 "/>
<path fill-rule="nonzero" fill="rgb(72.845459%, 62.232971%, 56.625366%)" fill-opacity="1" d="M 1088.960938 1345.390625 C 1041.621094 1411.480469 975.742188 1437.839844 911.28125 1444.71875 L 890.617188 1402.25 C 897.050781 1394.761719 901.726562 1384.800781 905.148438 1374.359375 C 913.929688 1347.46875 914.324219 1317.289062 914.324219 1317.289062 L 914.34375 1317.160156 C 923.257812 1318.519531 932.546875 1319.679688 942.234375 1320.609375 C 942.234375 1320.609375 981.757812 1326.929688 991.691406 1332.660156 C 991.691406 1332.660156 1053.691406 1319.210938 1085.441406 1311.371094 L 1085.519531 1311.679688 C 1085.519531 1311.679688 1086.351562 1326.679688 1088.960938 1345.390625 "/>
<path fill-rule="nonzero" fill="rgb(47.991943%, 55.255127%, 61.44104%)" fill-opacity="1" d="M 1122.601562 1485.519531 C 1123.53125 1475.660156 1122.71875 1464.570312 1121.070312 1453.789062 C 1118.570312 1437.328125 1114.148438 1421.550781 1111.121094 1411.859375 L 1138.96875 1419.828125 L 1149.21875 1400.359375 L 1183.378906 1415.109375 L 1104.738281 1599.078125 C 1111.628906 1559.53125 1120.640625 1506.101562 1122.601562 1485.519531 "/>
<path fill-rule="nonzero" fill="rgb(1.702881%, 2.149963%, 2.197266%)" fill-opacity="1" d="M 765.082031 1570.871094 C 739.746094 1554.960938 704.347656 1532.820312 681.734375 1519.179688 C 706.597656 1507.160156 724.742188 1500.691406 724.742188 1500.691406 L 725.101562 1500.5 C 736.550781 1520.460938 750.417969 1544.78125 765.082031 1570.871094 "/>
<path fill-rule="nonzero" fill="rgb(1.702881%, 2.149963%, 2.197266%)" fill-opacity="1" d="M 1329.371094 1509.511719 C 1300.359375 1520.261719 1281.121094 1530.789062 1268.460938 1539.589844 C 1275.558594 1522.660156 1282.429688 1506.78125 1288.738281 1492.839844 L 1288.898438 1492.898438 C 1303.539062 1497.929688 1316.988281 1503.53125 1329.371094 1509.511719 "/>
<path fill-rule="nonzero" fill="rgb(53.071594%, 8.306885%, 16.543579%)" fill-opacity="1" d="M 985.902344 1710.429688 L 944.410156 1794.871094 C 939.980469 1794.738281 935.0625 1794.429688 929.953125 1794.019531 L 981.53125 1701.191406 L 985.902344 1710.429688 "/>
<path fill="none" stroke-width="10" stroke-linecap="butt" stroke-linejoin="miter" stroke="rgb(1.615906%, 2.072144%, 2.070618%)" stroke-opacity="1" stroke-miterlimit="10" d="M 12439.21875 10657.109375 L 12438.984375 10657.304688 C 12421.210938 10665.78125 11283.203125 11220.195312 10915 11419.296875 C 10543.90625 11619.804688 9520.898438 12241.484375 9410.625 12512.304688 L 9420.625 10165.585938 C 9420.625 10165.585938 8457.96875 12020.898438 8437.890625 12612.617188 C 8437.890625 12612.617188 7916.445312 11659.882812 7715.898438 10476.40625 C 7715.898438 10476.40625 7485.234375 11178.59375 7495.273438 12211.484375 C 7495.273438 12211.484375 6700.234375 10582.382812 6739.609375 9115.703125 C 6739.609375 9115.703125 6157.421875 10162.382812 6042.578125 10653.90625 C 6042.578125 10653.90625 5993.164062 10640.117188 5920.703125 10608.90625 C 5850.898438 10578.789062 5759.492188 10532.617188 5670 10466.796875 C 5420.625 10283.789062 5184.882812 9949.6875 5463.398438 9392.695312 C 5463.398438 9392.695312 5656.40625 8800.507812 7065.78125 8304.882812 C 7065.78125 8304.882812 7314.960938 7110.703125 9143.4375 6828.398438 C 9232.578125 6814.804688 9325.46875 6803.203125 9422.34375 6793.90625 C 9422.34375 6793.90625 9817.578125 6730.703125 9916.914062 6673.398438 C 9916.914062 6673.398438 10536.914062 6807.890625 10854.414062 6886.289062 C 10896.40625 6896.484375 10933.007812 6905.78125 10962.304688 6913.710938 C 11213.203125 6981.796875 12091.484375 7237.8125 12289.882812 7676.992188 C 12289.882812 7676.992188 12750.3125 8026.40625 12835.390625 8350.195312 C 12835.390625 8350.195312 13294.21875 8394.21875 13911.40625 8986.796875 C 14395.390625 9451.289062 14489.804688 10012.109375 14139.21875 10351.796875 C 14078.710938 10410.390625 14004.6875 10462.617188 13917.109375 10506.289062 C 13865.3125 10532.382812 13808.515625 10555.507812 13746.796875 10575.390625 C 13746.796875 10575.390625 13421.015625 9471.015625 13136.289062 9389.609375 C 13136.289062 9389.609375 13121.09375 10275.898438 13060.898438 10606.796875 C 13060.898438 10606.796875 11847.617188 11680 11697.1875 11720.117188 L 12438.984375 10657.304688 " transform="matrix(0.1, 0, 0, -0.1, 0, 2000)"/>
<path fill="none" stroke-width="10" stroke-linecap="butt" stroke-linejoin="miter" stroke="rgb(1.615906%, 2.072144%, 2.070618%)" stroke-opacity="1" stroke-miterlimit="10" d="M 6739.609375 9115.703125 L 7065.78125 8304.882812 " transform="matrix(0.1, 0, 0, -0.1, 0, 2000)"/>
<path fill="none" stroke-width="10" stroke-linecap="butt" stroke-linejoin="miter" stroke="rgb(1.615906%, 2.072144%, 2.070618%)" stroke-opacity="1" stroke-miterlimit="10" d="M 12835.390625 8350.195312 L 13136.289062 9389.609375 " transform="matrix(0.1, 0, 0, -0.1, 0, 2000)"/>
<path fill="none" stroke-width="10" stroke-linecap="butt" stroke-linejoin="miter" stroke="rgb(1.615906%, 2.072144%, 2.070618%)" stroke-opacity="1" stroke-miterlimit="10" d="M 5924.296875 10600.898438 C 5924.296875 10600.898438 5923.164062 10603.59375 5920.703125 10608.90625 C 5869.453125 10731.09375 5274.375 12224.296875 6492.695312 13208.789062 C 6492.695312 13208.789062 6441.953125 12974.882812 6533.359375 13046.09375 C 6567.421875 13072.695312 6862.1875 13386.40625 7392.34375 13708.398438 C 8285.195312 14250.898438 9846.71875 14817.1875 11957.5 14075.117188 C 11957.5 14075.117188 14726.484375 13326.992188 13917.109375 10506.289062 C 13916.71875 10504.414062 13916.210938 10502.617188 13915.585938 10500.703125 " transform="matrix(0.1, 0, 0, -0.1, 0, 2000)"/>
<path fill="none" stroke-width="10" stroke-linecap="butt" stroke-linejoin="miter" stroke="rgb(1.615906%, 2.072144%, 2.070618%)" stroke-opacity="1" stroke-miterlimit="10" d="M 9143.242188 6827.109375 C 9143.242188 6827.109375 9139.296875 6525.3125 9051.484375 6256.40625 C 9017.265625 6151.992188 8970.507812 6052.382812 8906.171875 5977.5 L 8531.171875 5694.492188 L 9859.023438 2895.703125 L 10143.007812 3435.195312 L 11389.6875 5801.71875 L 11492.1875 5996.40625 L 11833.789062 5848.90625 L 10190.898438 2005.117188 L 10186.40625 1994.609375 " transform="matrix(0.1, 0, 0, -0.1, 0, 2000)"/>
<path fill="none" stroke-width="10" stroke-linecap="butt" stroke-linejoin="miter" stroke="rgb(1.615906%, 2.072144%, 2.070618%)" stroke-opacity="1" stroke-miterlimit="10" d="M 8906.171875 5977.5 L 10143.007812 3435.195312 L 10145.117188 3431.015625 " transform="matrix(0.1, 0, 0, -0.1, 0, 2000)"/>
<path fill="none" stroke-width="10" stroke-linecap="butt" stroke-linejoin="miter" stroke="rgb(1.615906%, 2.072144%, 2.070618%)" stroke-opacity="1" stroke-miterlimit="10" d="M 13130.390625 5545.585938 C 13068.515625 5452.695312 12984.101562 5284.609375 12887.382812 5071.601562 C 12451.914062 4111.601562 11766.992188 2239.414062 11766.992188 2239.414062 C 11196.09375 2060.390625 10193.398438 2005.117188 10193.398438 2005.117188 C 10192.617188 2005.117188 10191.601562 2005.117188 10190.898438 2005.117188 C 9892.5 2005 9444.101562 2051.289062 9444.101562 2051.289062 L 9859.023438 2895.703125 " transform="matrix(0.1, 0, 0, -0.1, 0, 2000)"/>
<path fill="none" stroke-width="10" stroke-linecap="butt" stroke-linejoin="miter" stroke="rgb(1.615906%, 2.072144%, 2.070618%)" stroke-opacity="1" stroke-miterlimit="10" d="M 10855.195312 6883.203125 C 10855.195312 6883.203125 10874.296875 6539.101562 10946.015625 6242.8125 C 10981.015625 6096.71875 11029.101562 5962.1875 11093.789062 5886.289062 L 11389.6875 5801.71875 L 11391.992188 5801.210938 " transform="matrix(0.1, 0, 0, -0.1, 0, 2000)"/>
<path fill="none" stroke-width="10" stroke-linecap="butt" stroke-linejoin="miter" stroke="rgb(1.615906%, 2.072144%, 2.070618%)" stroke-opacity="1" stroke-miterlimit="10" d="M 9444.101562 2051.289062 C 9192.070312 2059.296875 8776.210938 2120 8776.210938 2120 C 8615.195312 2590.585938 7725.546875 4167.8125 7251.015625 4995 C 7095.117188 5266.914062 6983.867188 5458.007812 6958.320312 5501.914062 C 6954.53125 5508.28125 6952.65625 5511.484375 6952.65625 5511.484375 " transform="matrix(0.1, 0, 0, -0.1, 0, 2000)"/>
<path fill="none" stroke-width="10" stroke-linecap="butt" stroke-linejoin="miter" stroke="rgb(100%, 100%, 100%)" stroke-opacity="1" stroke-miterlimit="10" d="M 10955.78125 6245.195312 C 10955.78125 6245.195312 11821.992188 6376.71875 11976.601562 6376.71875 C 11996.914062 6376.71875 12030.3125 6363.28125 12073.515625 6339.804688 C 12359.804688 6183.90625 13069.804688 5585.898438 13130.390625 5545.585938 " transform="matrix(0.1, 0, 0, -0.1, 0, 2000)"/>
<path fill="none" stroke-width="10" stroke-linecap="butt" stroke-linejoin="miter" stroke="rgb(100%, 100%, 100%)" stroke-opacity="1" stroke-miterlimit="10" d="M 6954.921875 5498.59375 C 6954.921875 5498.59375 6956.054688 5499.804688 6958.320312 5501.914062 C 6991.601562 5532.695312 7262.929688 5782.304688 7406.171875 5863.984375 C 7538.242188 5939.492188 7874.257812 6218.90625 8209.53125 6299.882812 C 8261.757812 6312.382812 8313.984375 6320.195312 8365.234375 6321.71875 C 8365.234375 6321.71875 9001.171875 6262.109375 9051.484375 6256.40625 L 9051.679688 6256.40625 " transform="matrix(0.1, 0, 0, -0.1, 0, 2000)"/>
<path fill="none" stroke-width="10" stroke-linecap="butt" stroke-linejoin="miter" stroke="rgb(1.615906%, 2.072144%, 2.070618%)" stroke-opacity="1" stroke-miterlimit="10" d="M 8208.59375 6301.601562 L 8209.53125 6299.882812 L 8531.171875 5694.492188 " transform="matrix(0.1, 0, 0, -0.1, 0, 2000)"/>
<path fill="none" stroke-width="10" stroke-linecap="butt" stroke-linejoin="miter" stroke="rgb(1.615906%, 2.072144%, 2.070618%)" stroke-opacity="1" stroke-miterlimit="10" d="M 11833.789062 5848.90625 L 12073.515625 6339.804688 " transform="matrix(0.1, 0, 0, -0.1, 0, 2000)"/>
<path fill="none" stroke-width="10" stroke-linecap="butt" stroke-linejoin="miter" stroke="rgb(100%, 100%, 100%)" stroke-opacity="1" stroke-miterlimit="10" d="M 5361.054688 11716.914062 C 5360.859375 11730.3125 5361.054688 11743.90625 5361.210938 11757.617188 L 4902.773438 11265.78125 C 4902.773438 11265.78125 4792.109375 11216.09375 4830.898438 11503.398438 C 4869.492188 11790.703125 4902.773438 12183.085938 5096.132812 12558.789062 C 5096.132812 12558.789062 5162.382812 12730.117188 4969.023438 12641.71875 C 4775.625 12553.203125 3654.023438 12249.296875 3510.234375 12276.914062 C 3510.234375 12276.914062 4410.859375 13431.796875 5035.234375 13840.703125 C 5035.234375 13840.703125 3852.890625 13857.1875 3725.742188 13912.382812 C 3725.742188 13912.382812 4653.984375 14989.882812 6140.390625 15382.1875 C 6140.390625 15382.1875 5610.976562 16937.304688 5703.320312 17817.8125 C 5703.320312 17817.8125 6665.78125 17060 7208.4375 16865.507812 C 7208.4375 16865.507812 7546.367188 16681.289062 7843.242188 16251.210938 L 8181.132812 16558.28125 C 8181.132812 16558.28125 8211.796875 17459.414062 9727.34375 18083.984375 C 9727.34375 18083.984375 9747.773438 17766.484375 9665.859375 17100.898438 C 9665.859375 17100.898438 10771.796875 17172.617188 11365.703125 17131.796875 C 11959.609375 17090.703125 12123.203125 16988.28125 12696.71875 17213.710938 C 13270.195312 17438.789062 13782.1875 17705 14324.804688 18288.710938 C 14324.804688 18288.710938 14161.015625 16281.796875 13434.101562 15483.203125 C 13434.101562 15483.203125 14386.289062 15298.90625 15031.289062 14479.6875 L 14396.601562 14346.601562 C 14396.601562 14346.601562 15533.085938 14162.382812 16003.984375 13537.617188 L 14724.101562 13384.21875 C 14724.101562 13384.21875 15318.007812 12636.601562 15215.585938 11715 C 15215.585938 11715 14785.585938 12022.304688 14662.8125 12216.796875 C 14662.8125 12216.796875 14539.804688 11674.101562 14386.289062 11479.609375 C 14386.289062 11479.609375 14385.390625 11457.304688 14382.382812 11418.28125 C 14369.296875 11240.703125 14316.914062 10714.296875 14140.585938 10353.28125 " transform="matrix(0.1, 0, 0, -0.1, 0, 2000)"/>
<path fill="none" stroke-width="10" stroke-linecap="butt" stroke-linejoin="miter" stroke="rgb(100%, 100%, 100%)" stroke-opacity="1" stroke-miterlimit="10" d="M 5671.328125 10464.101562 C 5671.328125 10464.101562 5670.976562 10465.117188 5670 10466.796875 C 5647.890625 10510.3125 5363.125 11083.984375 5361.054688 11716.71875 " transform="matrix(0.1, 0, 0, -0.1, 0, 2000)"/>
<path fill="none" stroke-width="10" stroke-linecap="butt" stroke-linejoin="miter" stroke="rgb(100%, 100%, 100%)" stroke-opacity="1" stroke-miterlimit="10" d="M 5366.71875 11776.914062 C 5366.71875 11776.914062 4729.648438 12984.21875 5803.59375 14149.101562 C 5803.59375 14149.101562 5676.054688 15690.195312 7035.117188 15532.617188 C 7035.117188 15532.617188 7411.445312 16030 7993.828125 15629.6875 C 7993.828125 15629.6875 11205 16922.109375 13744.21875 14587.5 C 13744.21875 14587.5 14912.109375 13750.703125 14662.8125 12216.796875 " transform="matrix(0.1, 0, 0, -0.1, 0, 2000)"/>
<path fill="none" stroke-width="10" stroke-linecap="butt" stroke-linejoin="miter" stroke="rgb(100%, 100%, 100%)" stroke-opacity="1" stroke-miterlimit="10" d="M 5361.054688 11716.71875 C 5361.054688 11716.71875 5361.054688 11716.71875 5361.054688 11716.914062 C 5361.40625 11719.101562 5365.039062 11740.3125 5372.773438 11776.289062 C 5429.53125 12044.21875 5707.851562 13137.8125 6525.78125 13491.40625 L 6492.695312 13208.789062 " transform="matrix(0.1, 0, 0, -0.1, 0, 2000)"/>
<path fill="none" stroke-width="10" stroke-linecap="butt" stroke-linejoin="miter" stroke="rgb(100%, 100%, 100%)" stroke-opacity="1" stroke-miterlimit="10" d="M 7389.335938 13713.398438 C 7389.335938 13713.398438 7999.492188 14180.703125 8062.890625 14362.890625 C 8064.609375 14368.007812 8072.34375 14373.085938 8084.101562 14378.398438 C 8136.484375 14401.289062 8268.164062 14423.515625 8288.4375 14428.90625 C 8497.304688 14484.21875 8709.414062 14527.890625 8922.65625 14562.890625 C 9621.953125 14677.890625 10339.414062 14698.789062 11043.28125 14611.71875 C 11744.492188 14525.117188 12363.710938 14359.882812 12933.984375 13930 C 13379.882812 13593.984375 13778.789062 13179.296875 14046.71875 12686.210938 C 14258.59375 12296.210938 14378.398438 11861.992188 14382.382812 11418.28125 C 14382.695312 11395.78125 14382.5 11373.515625 14382.1875 11351.09375 " transform="matrix(0.1, 0, 0, -0.1, 0, 2000)"/>
<path fill="none" stroke-width="10" stroke-linecap="butt" stroke-linejoin="miter" stroke="rgb(100%, 100%, 100%)" stroke-opacity="1" stroke-miterlimit="10" d="M 6525.78125 13491.40625 C 6525.78125 13491.40625 6542.421875 13573.007812 6573.085938 13680.3125 C 6617.734375 13836.71875 6691.914062 14047.890625 6786.328125 14138.710938 C 6786.328125 14138.710938 6428.90625 14867.5 7035.117188 15532.617188 " transform="matrix(0.1, 0, 0, -0.1, 0, 2000)"/>
<path fill="none" stroke-width="10" stroke-linecap="butt" stroke-linejoin="miter" stroke="rgb(100%, 100%, 100%)" stroke-opacity="1" stroke-miterlimit="10" d="M 8081.445312 14358.59375 C 8081.445312 14358.59375 8082.578125 14365.78125 8084.101562 14378.398438 C 8092.96875 14451.992188 8112.265625 14711.992188 7971.523438 14847.304688 C 7971.523438 14847.304688 8364.492188 15189.882812 7993.828125 15629.6875 " transform="matrix(0.1, 0, 0, -0.1, 0, 2000)"/>
<path fill="none" stroke-width="10" stroke-linecap="butt" stroke-linejoin="miter" stroke="rgb(100%, 100%, 100%)" stroke-opacity="1" stroke-miterlimit="10" d="M 5803.59375 14149.101562 C 5803.59375 14149.101562 5851.445312 13509.414062 6566.289062 13680.390625 " transform="matrix(0.1, 0, 0, -0.1, 0, 2000)"/>
<path fill="none" stroke-width="10" stroke-linecap="butt" stroke-linejoin="miter" stroke="rgb(100%, 100%, 100%)" stroke-opacity="1" stroke-miterlimit="10" d="M 7247.421875 4993.085938 C 7247.421875 4993.085938 5656.210938 4425.703125 5444.6875 3535.390625 C 5444.6875 3535.390625 7133.515625 2262.5 8776.210938 2120 " transform="matrix(0.1, 0, 0, -0.1, 0, 2000)"/>
<path fill="none" stroke-width="10" stroke-linecap="butt" stroke-linejoin="miter" stroke="rgb(100%, 100%, 100%)" stroke-opacity="1" stroke-miterlimit="10" d="M 11766.992188 2239.414062 C 11766.992188 2239.414062 13278.515625 2467.1875 14591.40625 3657.890625 C 14591.40625 3657.890625 14246.484375 4603.710938 12888.984375 5071.015625 " transform="matrix(0.1, 0, 0, -0.1, 0, 2000)"/>
</svg>
